<svg xmlns="http://www.w3.org/2000/svg" viewBox="0 0 1200 630" width="1200" height="630">
  <rect width="1200" height="630" fill="#0a0a0a"/>
  <g filter="url(#blur)">
    <circle cx="160" cy="150" r="260" fill="#007cf0" opacity="0.28"/>
    <circle cx="1040" cy="120" r="240" fill="#ff0080" opacity="0.20"/>
    <circle cx="980" cy="540" r="300" fill="#7928ca" opacity="0.20"/>
    <circle cx="620" cy="360" r="240" fill="#50e3c2" opacity="0.14"/>
  </g>
  <rect x="24" y="24" width="1152" height="582" rx="20" fill="none" stroke="#ffffff14"/>
  <g transform="translate(80,86)">
    <rect width="46" height="46" rx="11" fill="#ededed"/>
    <path d="M11 32a12 12 0 0 1 24 0" fill="none" stroke="#0070f3" stroke-width="3.4" stroke-linecap="round"/>
    <path d="M23 32 31 19" stroke="#0a0a0a" stroke-width="3.4" stroke-linecap="round"/>
    <circle cx="23" cy="32" r="3.4" fill="#0a0a0a"/>
  </g>
  <text x="140" y="120" fill="#ededed" font-family="Geist, Inter, system-ui, sans-serif" font-size="34" font-weight="600">Meter Speed Test</text>
  <text x="80" y="300" fill="#ededed" font-family="Geist, Inter, system-ui, sans-serif" font-size="92" font-weight="600" letter-spacing="-3">Know your real speed.</text>
  <text x="80" y="372" fill="#a1a1a1" font-family="Geist, Inter, system-ui, sans-serif" font-size="30" font-weight="400">Download · Upload · Ping · Jitter · Loss · Latency under load</text>
  <g font-family="'Geist Mono', ui-monospace, monospace" font-size="22" fill="#7a7a7a">
    <text x="80" y="540">meterspeedtest.com</text>
  </g>
  <g transform="translate(760,430)">
    <text x="0" y="0" fill="#00dfd8" font-family="Geist, Inter, sans-serif" font-size="64" font-weight="600" text-anchor="end">1.2</text>
    <text x="10" y="0" fill="#7a7a7a" font-family="'Geist Mono', monospace" font-size="22">Gbps</text>
    <text x="200" y="0" fill="#0070f3" font-family="Geist, Inter, sans-serif" font-size="64" font-weight="600" text-anchor="end">340</text>
    <text x="210" y="0" fill="#7a7a7a" font-family="'Geist Mono', monospace" font-size="22">Mbps</text>
  </g>
  <defs>
    <filter id="blur" x="-30%" y="-30%" width="160%" height="160%">
      <feGaussianBlur stdDeviation="70"/>
    </filter>
  </defs>
</svg>
